<svg xmlns="http://www.w3.org/2000/svg" width="100" height="100" viewBox="0 0 100 100">
  <g id="left" transform="translate(-940 -940)">
    <path id="Path_5" data-name="Path 5" d="M50,0A50,50,0,1,1,0,50,50,50,0,0,1,50,0Z" transform="translate(940 940)"/>
    <path id="Icon_ionic-ios-arrow-back" data-name="Icon ionic-ios-arrow-back" d="M18.629,24.594c0-6.961,16.2-13.917,16.2-13.917a2.369,2.369,0,0,0,0-3.715,3.439,3.439,0,0,0-4.334,0L12.142,22.731a2.368,2.368,0,0,0-.089,3.627l18.43,15.878a3.444,3.444,0,0,0,4.334,0,2.369,2.369,0,0,0,0-3.715S18.626,31.555,18.629,24.594Z" transform="translate(966.1 962.806)" fill="#fff"/>
  </g>
</svg>
